<svg width="24" height="25" viewBox="0 0 24 25" fill="none" xmlns="http://www.w3.org/2000/svg">
<mask id="mask0_1_998" style="mask-type:alpha" maskUnits="userSpaceOnUse" x="0" y="0" width="24" height="25">
<rect y="0.5" width="24" height="24" fill="#D9D9D9"/>
</mask>
<g mask="url(#mask0_1_998)">
<path d="M2 19.5V17.5H22V19.5H2ZM3 16.5V15.5C3 13.3667 3.65417 11.4833 4.9625 9.85C6.27083 8.21667 7.95 7.18333 10 6.75V6.5C10 5.95 10.1958 5.47917 10.5875 5.0875C10.9792 4.69583 11.45 4.5 12 4.5C12.55 4.5 13.0208 4.69583 13.4125 5.0875C13.8042 5.47917 14 5.95 14 6.5V6.75C16.0667 7.18333 17.75 8.21667 19.05 9.85C20.35 11.4833 21 13.3667 21 15.5V16.5H3ZM5.05 14.5H18.95C18.7167 12.7667 17.9417 11.3333 16.625 10.2C15.3083 9.06667 13.7667 8.5 12 8.5C10.2333 8.5 8.69583 9.06667 7.3875 10.2C6.07917 11.3333 5.3 12.7667 5.05 14.5Z" fill="#1C1B1F"/>
</g>
</svg>
