<svg width="24" height="25" viewBox="0 0 24 25" fill="none" xmlns="http://www.w3.org/2000/svg">
<mask id="mask0_1_1004" style="mask-type:alpha" maskUnits="userSpaceOnUse" x="0" y="0" width="24" height="25">
<rect y="0.5" width="24" height="24" fill="#D9D9D9"/>
</mask>
<g mask="url(#mask0_1_1004)">
<path d="M9 19.5V17.5H11C10.75 15.2 9.76667 13.2917 8.05 11.775C6.33333 10.2583 4.31667 9.5 2 9.5V7.5C4.15 7.5 6.125 8.06667 7.925 9.2C9.725 10.3333 11.0833 11.8667 12 13.8C12.6333 12.45 13.4667 11.2542 14.5 10.2125C15.5333 9.17083 16.6917 8.26667 17.975 7.5H14V5.5H21V12.5H19V9.2C17.45 10.15 16.1167 11.325 15 12.725C13.8833 14.125 13.2167 15.7167 13 17.5H15V19.5H9Z" fill="#1C1B1F"/>
</g>
</svg>
